<svg width="21" height="21" viewBox="0 0 21 21" fill="none" xmlns="http://www.w3.org/2000/svg">
	<ellipse cx="11" cy="10.073" rx="8.5" ry="7" fill="white" />
	<path d="M10.5 0.218536C16.023 0.218536 20.5 4.69654 20.5 10.2185C20.5 15.7405 16.023 20.2185 10.5 20.2185C4.977 20.2185 0.5 15.7405 0.5 10.2185C0.5 4.69654 4.977 0.218536 10.5 0.218536ZM10.5018 13.2223C9.95025 13.2223 9.50314 13.6694 9.50314 14.2209C9.50314 14.7725 9.95025 15.2196 10.5018 15.2196C11.0533 15.2196 11.5005 14.7725 11.5005 14.2209C11.5005 13.6694 11.0533 13.2223 10.5018 13.2223ZM10.4996 5.21854C9.9868 5.21872 9.56427 5.60491 9.50669 6.10227L9.5 6.2189L9.5018 11.2198L9.50857 11.3364C9.56651 11.8337 9.98932 12.2196 10.5022 12.2194C11.015 12.2192 11.4375 11.833 11.4951 11.3357L11.5018 11.2191L11.5 6.21818L11.4932 6.10156C11.4353 5.60424 11.0125 5.21835 10.4996 5.21854Z" fill="#FF6056" />
</svg>
