<svg fill="none" xmlns="http://www.w3.org/2000/svg" viewBox="0 0 311 88">
	<path fill-rule="evenodd" clip-rule="evenodd" d="M0 10C0 4.47715 4.47715 0 10 0H301C306.523 0 311 4.47715 311 10V36.5019C310.945 36.5006 310.891 36.5 310.836 36.5C306.878 36.5 303.67 39.8579 303.67 44C303.67 48.1421 306.878 51.5 310.836 51.5C310.891 51.5 310.945 51.4994 311 51.4981V78C311 83.5229 306.523 88 301 88H9.99999C4.47715 88 0 83.5229 0 78V51.4804C0.172441 51.4934 0.346572 51.5 0.522178 51.5C4.47997 51.5 7.6884 48.1421 7.6884 44C7.6884 39.8579 4.47997 36.5 0.522178 36.5C0.346572 36.5 0.172441 36.5066 0 36.5196V10Z" fill="white">
	</path>
</svg>
