<svg width="21" height="21" viewBox="0 0 21 21" fill="none" xmlns="http://www.w3.org/2000/svg">
	<g clip-path="url(#clip0_1_710)">
		<path d="M10.5 19.299C15.595 19.299 19.7254 15.1687 19.7254 10.0736C19.7254 4.97859 15.595 0.848236 10.5 0.848236C5.40495 0.848236 1.2746 4.97859 1.2746 10.0736C1.2746 15.1687 5.40495 19.299 10.5 19.299Z" fill="#26D361" />
		<path d="M9.29163 13.7522C9.08405 13.7522 8.88573 13.6693 8.73933 13.5206L5.88108 10.6159C5.58132 10.3107 5.58518 9.82113 5.89038 9.52058C6.19558 9.2216 6.68589 9.22468 6.98565 9.52988L9.26917 11.8505L13.9934 6.64761C14.2823 6.33082 14.7719 6.30836 15.0871 6.59496C15.4039 6.88234 15.4272 7.37187 15.1398 7.68945L9.86483 13.4989C9.72155 13.6569 9.52014 13.7483 9.30714 13.7529C9.30171 13.7522 9.29706 13.7522 9.29163 13.7522Z" fill="white" />
	</g>
	<defs>
		<clipPath id="clip0_1_710">
			<rect width="20" height="20" fill="white" transform="translate(0.5 0.0728455)" />
		</clipPath>
	</defs>
</svg>
