<svg width="55" height="53" viewBox="0 0 55 53" fill="none" xmlns="http://www.w3.org/2000/svg">
	<g filter="url(#filter0_d_1_460)">
		<ellipse cx="27.5553" cy="22.7371" rx="22.7113" ry="22.0613" fill="#092578" />
	</g>
	<path d="M24.17 30.7905L32.0559 23.2694C32.2038 23.1284 32.2868 22.9371 32.2868 22.7376C32.2868 22.5381 32.2037 22.3469 32.0558 22.2058L24.17 14.6851C23.862 14.3914 23.3627 14.3914 23.0548 14.6851C22.7469 14.9788 22.7468 15.455 23.0548 15.7487L30.383 22.7376L23.0548 29.7269C22.9008 29.8738 22.8238 30.0663 22.8238 30.2587C22.8238 30.4512 22.9008 30.6437 23.0548 30.7906C23.3628 31.0842 23.8621 31.0842 24.17 30.7905Z" fill="white" />
	<defs>
		<filter id="filter0_d_1_460" x="0.844025" y="0.675781" width="53.4226" height="52.1226" filterUnits="userSpaceOnUse" color-interpolation-filters="sRGB">
			<feFlood flood-opacity="0" result="BackgroundImageFix" />
			<feColorMatrix in="SourceAlpha" type="matrix" values="0 0 0 0 0 0 0 0 0 0 0 0 0 0 0 0 0 0 127 0" result="hardAlpha" />
			<feOffset dy="4" />
			<feGaussianBlur stdDeviation="2" />
			<feComposite in2="hardAlpha" operator="out" />
			<feColorMatrix type="matrix" values="0 0 0 0 0 0 0 0 0 0 0 0 0 0 0 0 0 0 0.25 0" />
			<feBlend mode="normal" in2="BackgroundImageFix" result="effect1_dropShadow_1_460" />
			<feBlend mode="normal" in="SourceGraphic" in2="effect1_dropShadow_1_460" result="shape" />
		</filter>
	</defs>
</svg>
